ply
format ascii 1.0
comment Orbital bonds at tick 50000
element vertex 12
property float x
property float y
property float z
element edge 56
property int vertex1
property int vertex2
end_header
0.381 -1.089 1.995
143.619 229.126 131.450
-0.787 -2.075 1.196
-93.581 -145.528 -84.542
-0.092 0.648 0.124
-11.987 -13.131 -11.036
0.654 -0.169 2.229
-1.510 2.222 -2.579
0.031 -0.004 1.238
1.142 0.039 1.911
10.352 9.028 10.561
-0.667 -0.207 -0.121
0 4
2 5
3 6
4 8
0 8
5 7
7 11
9 10
7 10
5 11
9 11
3 10
6 8
7 8
8 9
6 7
0 11
6 11
8 11
6 9
4 5
2 4
0 7
2 7
7 9
2 8
5 8
5 6
0 3
3 8
4 7
0 5
2 3
3 4
4 6
3 11
4 11
2 10
2 9
3 7
3 9
2 11
6 10
10 11
2 6
3 5
0 6
5 9
4 9
8 10
4 10
0 2
5 10
0 10
1 10
0 9
