ply
format ascii 1.0
comment Orbital bonds at tick 5000
element vertex 100
property float x
property float y
property float z
element edge 571
property int vertex1
property int vertex2
end_header
-7.054 1.177 -70.164
1.297 0.039 1.319
-1.404 0.665 -0.294
1.182 -0.271 -0.893
-2.814 2.297 -1.790
0.685 0.411 0.443
0.534 1.287 0.736
2.395 -2.641 1.437
-0.903 -0.187 0.978
-2.893 3.697 -2.358
7.615 -3.362 58.887
2.097 0.738 0.318
-2.213 -1.012 -1.415
-0.261 -0.313 -0.610
-0.674 6.295 3.071
0.301 -0.184 -0.147
-5.686 3.268 7.007
-0.630 -2.308 0.980
13.150 -8.251 2.314
1.011 -0.610 -0.641
0.469 -0.087 -0.612
5.262 -1.992 -3.249
0.089 0.200 0.052
-0.487 0.035 0.736
-7.789 2.444 -0.085
0.360 -0.102 -0.707
0.739 -0.700 1.052
3.278 -1.240 -3.957
-0.452 0.134 1.119
-0.725 0.117 0.069
0.109 0.610 -0.425
-0.085 0.521 -0.433
-0.639 -2.076 -1.006
1.774 -0.461 -1.287
10.766 0.890 3.005
0.043 -1.027 0.859
-93.814 137.047 40.619
0.942 -0.017 1.880
-12.529 -4.875 -2.166
0.326 0.398 1.086
1.031 1.573 -2.681
-0.139 -0.272 -0.287
0.003 0.721 0.462
0.309 -0.212 0.038
0.930 -2.109 -0.670
1.567 -0.563 -0.530
0.446 1.198 -0.794
1.262 -0.894 0.497
-0.397 0.783 0.365
0.024 -0.173 -0.101
0.444 0.178 0.008
-2.245 -0.551 -0.731
0.100 0.250 -1.337
107.482 -157.841 -47.459
0.572 0.046 0.718
-5.460 5.425 -0.191
-37.469 15.220 11.871
0.001 0.619 -0.216
-1.817 0.015 -0.381
-0.054 -3.878 -2.045
-0.590 -0.968 2.237
42.765 9.126 4.078
0.202 0.140 0.590
16.285 5.868 -0.853
75.640 59.555 49.300
-0.197 1.108 0.952
-1.021 -0.209 0.083
-1.906 2.447 3.050
0.448 0.128 0.828
5.828 -11.873 2.476
0.875 -0.720 0.517
0.815 -1.942 2.458
12.346 -4.747 -3.913
-2.414 -0.868 -0.631
-168.152 -409.064 450.622
-0.283 -0.421 0.185
0.072 0.105 0.117
-3.055 0.585 1.091
0.829 1.278 1.601
-1.212 0.368 -0.275
-0.017 -2.786 -2.373
-0.894 4.961 3.786
-4.290 -1.342 -0.690
-71.781 -51.840 -44.491
-0.960 0.892 -0.272
140.896 341.614 -382.846
2.027 2.289 -2.238
-0.421 0.360 0.114
0.810 -0.736 -0.802
0.120 -0.341 -0.144
5.521 -6.278 -7.871
0.065 -0.041 0.089
-0.221 -1.058 -0.791
1.526 1.049 -2.441
0.946 -0.234 1.114
0.889 -2.478 -0.546
-1.173 0.067 -0.527
0.219 -0.499 -0.215
-0.669 -0.411 1.917
0.054 -0.609 0.734
0 25
8 71
22 40
26 45
36 53
46 71
48 67
76 91
86 97
3 64
10 25
10 47
29 81
56 81
0 10
0 47
5 10
5 25
5 47
11 46
14 45
25 47
42 66
43 48
58 77
14 26
23 34
29 56
43 67
59 63
0 90
1 42
4 42
25 90
59 92
63 92
72 77
1 4
2 98
7 16
9 33
13 58
17 39
17 54
22 65
32 40
39 74
40 59
40 70
42 45
42 88
49 57
52 87
1 45
4 45
4 88
9 12
12 33
17 30
17 57
26 88
31 75
31 93
32 60
45 88
57 61
72 95
6 37
7 64
9 24
12 29
12 52
17 61
28 52
28 87
29 52
29 87
39 61
54 55
54 61
55 61
72 85
5 17
7 70
39 44
51 83
64 65
88 95
4 24
4 41
13 49
13 93
20 32
22 52
24 52
32 65
32 72
41 72
54 88
57 69
61 89
65 70
70 90
4 54
7 13
7 61
8 88
12 86
13 50
13 89
17 75
18 69
20 35
20 54
20 65
20 97
21 24
21 90
22 80
24 99
32 52
32 80
32 85
35 54
44 72
52 60
52 85
54 97
65 90
85 87
88 89
89 97
3 24
3 52
4 12
4 73
4 84
7 30
12 54
13 38
13 94
21 73
35 88
38 61
38 94
44 52
49 86
50 73
54 89
62 72
69 99
72 73
72 94
80 87
80 97
14 35
17 50
18 22
18 30
18 72
22 30
22 69
22 72
30 83
32 86
61 69
69 72
69 94
72 83
18 38
30 61
32 75
43 64
13 22
18 80
19 44
19 69
38 86
44 69
69 80
15 31
44 86
4 27
45 85
4 85
25 67
32 42
26 97
42 54
30 89
38 69
73 75
13 17
23 95
35 80
88 92
26 44
12 27
25 57
62 77
50 98
25 70
14 51
20 23
44 79
31 92
4 20
1 52
18 79
31 81
14 83
45 59
83 92
83 84
31 51
41 45
44 83
18 21
32 61
18 83
32 59
23 25
8 52
5 89
59 81
81 95
59 97
23 26
42 64
50 80
2 51
7 88
7 86
51 93
65 69
8 13
43 94
31 83
31 69
47 83
63 90
78 94
43 44
23 98
23 63
30 50
48 81
23 54
34 98
45 60
30 43
21 88
57 66
46 75
16 70
11 75
3 99
21 97
38 77
19 85
21 23
20 83
17 29
9 99
25 80
29 43
68 74
9 63
34 81
27 80
14 59
11 55
11 85
17 23
43 99
60 63
57 64
9 65
0 48
31 45
31 67
47 86
0 89
43 59
45 95
9 43
16 90
21 57
39 42
22 48
44 57
39 47
57 97
18 59
40 97
25 85
22 47
40 54
10 18
43 47
25 40
14 43
26 51
9 16
64 90
11 63
0 56
59 65
0 77
48 80
23 86
62 74
38 81
39 75
55 67
7 45
7 29
5 66
55 81
23 41
46 65
30 55
41 64
74 94
64 70
16 26
11 41
42 47
40 42
30 65
57 90
9 90
40 80
55 65
61 83
46 57
46 87
71 87
23 71
2 31
67 98
7 89
2 25
30 46
1 38
5 88
14 84
59 75
64 89
29 55
9 60
0 97
58 84
37 42
10 80
90 93
63 79
51 57
21 40
55 98
3 90
18 40
18 70
10 14
21 71
40 81
2 60
41 75
34 89
77 84
90 97
33 50
39 82
40 47
64 68
5 33
10 22
44 65
43 97
9 47
29 99
9 55
71 75
30 33
17 59
24 68
27 46
27 33
58 63
42 46
55 77
56 62
5 87
26 33
66 86
31 33
34 35
33 34
34 38
9 48
64 77
55 89
77 89
39 55
29 38
15 78
0 3
33 38
27 98
1 63
11 58
14 46
22 83
24 47
20 92
48 86
7 92
41 86
39 87
44 87
3 77
34 82
27 81
31 85
58 79
51 84
15 38
50 61
15 99
33 92
34 70
0 63
33 35
85 86
1 39
46 79
39 68
39 70
75 82
79 98
7 26
81 98
56 63
26 98
26 50
29 77
11 87
21 81
21 82
50 64
29 82
20 63
0 99
26 77
21 46
35 95
16 37
2 66
10 37
27 70
33 51
35 37
16 27
68 71
77 95
48 82
16 92
17 35
11 34
37 87
2 85
10 87
48 78
13 78
51 98
10 92
37 84
75 78
13 96
41 48
3 75
10 27
2 10
48 58
48 92
79 84
84 93
35 41
14 27
3 94
5 82
37 79
41 68
41 95
2 14
12 37
68 95
24 56
3 62
37 46
35 56
68 78
70 92
37 70
82 92
51 79
2 37
3 15
8 78
37 73
50 91
2 58
15 68
20 73
79 93
91 98
20 82
14 91
93 96
35 68
6 79
79 96
62 78
28 78
28 62
56 95
60 66
67 82
19 51
11 79
8 62
6 66
28 99
49 66
19 49
11 84
5 34
5 11
2 49
12 73
8 99
5 51
11 93
58 93
60 76
8 68
6 84
6 98
71 94
94 99
84 96
24 62
12 34
76 78
20 34
1 8
19 96
6 49
66 76
62 68
15 28
41 76
78 95
1 3
6 19
1 76
66 96
19 60
49 60
76 84
28 76
